<?xml version="1.0" standalone="no"?><!DOCTYPE svg PUBLIC "-//W3C//DTD SVG 1.1//EN"
  "http://www.w3.org/Graphics/SVG/1.1/DTD/svg11.dtd">
<svg t="1652090430201" class="icon" viewBox="0 0 1024 1024" version="1.1" xmlns="http://www.w3.org/2000/svg" p-id="997"
     xmlns:xlink="http://www.w3.org/1999/xlink" width="25" height="25">
  <defs>
    <style type="text/css"></style>
  </defs>
  <path
    d="M537.429333 24.746667c-9.386667-0.512-18.090667-0.853333-25.770666-0.853334-205.994667 0-380.416 153.770667-405.674667 357.546667-12.458667 100.010667 12.629333 200.704 70.656 283.648 57.856 82.602667 143.530667 140.8 241.322667 163.84l10.069333 2.389333 83.968 145.066667 83.968-145.066667 10.069333-2.389333c89.088-20.992 169.472-71.850667 226.474667-143.530667 57.173333-71.850667 88.746667-161.792 88.746667-253.44 0-215.04-168.618667-393.898667-383.829334-407.210666z"
    fill="#070F1B" p-id="998"></path>
  <path
    d="M538.794667 0.853333c-8.874667-0.512-18.090667-0.853333-27.136-0.853333C293.717333 0 109.056 162.645333 82.261333 378.538667c-27.306667 219.306667 116.565333 423.424 330.24 473.6l62.634667 108.202666 36.864 63.658667 36.864-63.658667 62.634667-108.202666C805.888 806.4 945.152 632.832 945.152 431.957333 945.152 204.288 766.805333 15.018667 538.794667 0.853333z m67.242666 828.074667l-10.069333 2.389333-83.968 145.066667-83.968-145.066667-10.069333-2.389333c-97.792-23.04-183.466667-81.066667-241.322667-163.84-58.026667-82.944-83.114667-183.637333-70.656-283.648C131.242667 177.664 305.664 23.893333 511.658667 23.893333c7.68 0 16.384 0.341333 25.770666 0.853334 215.210667 13.312 383.829333 192.341333 383.829334 407.210666 0 91.477333-31.573333 181.589333-88.746667 253.44-57.002667 71.509333-137.386667 122.538667-226.474667 143.530667z"
    fill="#09D898" p-id="999"></path>
  <path
    d="M744.106667 508.074667l-94.208-133.461334c-7.338667-10.24-22.528-10.24-29.696 0l-25.088 35.498667-103.082667-145.92c-7.338667-10.24-22.528-10.24-29.696 0l-172.373333 243.712c-8.533333 12.117333 0.170667 28.672 14.848 28.672h424.448c14.677333 0.170667 23.210667-16.384 14.848-28.501333zM652.288 321.024c28.16 0 51.029333-22.869333 51.029333-51.029333s-22.869333-51.029333-51.029333-51.029334-51.029333 22.869333-51.029333 51.029334c-0.170667 28.16 22.698667 51.029333 51.029333 51.029333z m8.362667 247.637333h-281.6c-13.141333 0-23.722667 10.581333-23.722667 23.722667s10.581333 23.722667 23.722667 23.722667h281.6c13.141333 0 23.722667-10.581333 23.722666-23.722667s-10.581333-23.722667-23.722666-23.722667z"
    fill="#09D898" p-id="1000"></path>
</svg>
